<?xml version="1.0" encoding="utf-8"?>
<!-- Generator: Adobe Illustrator 24.3.0, SVG Export Plug-In . SVG Version: 6.00 Build 0)  -->
<svg version="1.1" id="Layer_1" xmlns="http://www.w3.org/2000/svg" xmlns:xlink="http://www.w3.org/1999/xlink" x="0px" y="0px"
	 viewBox="0 0 32 32" style="enable-background:new 0 0 32 32;" xml:space="preserve">
<style type="text/css">
	.st0{fill:#FFA500;}
</style>
<path class="st0" d="M5,6C3.4,6,2,7.4,2,9v14c0,1.6,1.4,3,3,3h22c1.6,0,3-1.4,3-3V9c0-1.6-1.4-3-3-3H5z M5,8h22c0.6,0,1,0.4,1,1v14
	c0,0.6-0.4,1-1,1H5c-0.6,0-1-0.4-1-1V9C4,8.4,4.4,8,5,8z M11,11c-0.5,0-1,0.3-1.3,0.7C9.4,12,9.1,12.5,9.2,13c0.5,0.1,1-0.2,1.3-0.6
	C10.8,12,11,11.5,11,11z M13,13v6h0.9v-2.1h1.3c1.2,0,2-0.8,2-2c0-1.2-0.8-2-2-2H13z M7.8,13.5c-1,0-1.8,0.9-1.8,2.2
	C6,17.4,7.2,19,7.9,19c0.4,0,0.6-0.3,1.2-0.3c0.6,0,0.7,0.3,1.2,0.3c0.9,0,1.6-1.8,1.7-1.9c-0.1-0.1-1-0.5-1-1.5
	c0-0.9,0.8-1.4,0.8-1.4c-0.4-0.6-1.1-0.7-1.4-0.7c-0.6,0-1.1,0.3-1.4,0.3C8.7,13.8,8.3,13.5,7.8,13.5z M13.9,13.8H15
	c0.8,0,1.3,0.4,1.3,1.2c0,0.8-0.5,1.2-1.3,1.2h-1.1V13.8z M19.4,14.5c-1,0-1.7,0.6-1.7,1.3h0.8c0.1-0.4,0.4-0.6,0.9-0.6
	c0.6,0,0.9,0.3,0.9,0.8v0.3l-1.2,0.1c-1.1,0.1-1.7,0.5-1.7,1.3c0,0.8,0.6,1.3,1.5,1.3c0.6,0,1.1-0.3,1.4-0.8h0V19h0.9v-3
	C21.2,15.1,20.5,14.5,19.4,14.5z M21.6,14.6l1.6,4.4l-0.1,0.3c-0.1,0.4-0.4,0.6-0.8,0.6c-0.1,0-0.2,0-0.3,0v0.7c0.1,0,0.3,0,0.4,0
	c0.9,0,1.3-0.4,1.7-1.4l1.6-4.6h-0.9l-1.1,3.5h0l-1.1-3.5H21.6z M20.3,17v0.3h0c0,0.6-0.5,1-1.1,1c-0.5,0-0.8-0.2-0.8-0.6
	c0-0.4,0.3-0.6,0.9-0.6L20.3,17z"/>
</svg>
