<?xml version="1.0" encoding="utf-8"?>
<!-- Generator: Adobe Illustrator 24.3.0, SVG Export Plug-In . SVG Version: 6.00 Build 0)  -->
<svg version="1.1" id="Layer_1" xmlns="http://www.w3.org/2000/svg" xmlns:xlink="http://www.w3.org/1999/xlink" x="0px" y="0px"
	 viewBox="0 0 24 24" style="enable-background:new 0 0 24 24;" xml:space="preserve">
<style type="text/css">
	.st0{fill:none;stroke:#FFA500;stroke-miterlimit:10;}
	.st1{fill-rule:evenodd;clip-rule:evenodd;fill:#FFA500;}
</style>
<g>
	<path class="st0" d="M22,20.5H2c-0.8,0-1.5-0.7-1.5-1.5V5c0-0.8,0.7-1.5,1.5-1.5h20c0.8,0,1.5,0.7,1.5,1.5v14
		C23.5,19.8,22.8,20.5,22,20.5z"/>
	<g>
		<path id="XMLID_1371_" class="st1" d="M14.2,14.3c-1,0.8-2.6,1.2-3.9,1.2c-1.8,0-3.5-0.7-4.7-1.8c-0.1-0.1,0-0.2,0.1-0.1
			c1.3,0.8,3,1.3,4.7,1.3c1.2,0,2.4-0.2,3.6-0.7C14.2,14,14.3,14.2,14.2,14.3"/>
		<path id="XMLID_1370_" class="st1" d="M14.6,13.8c-0.1-0.2-0.9-0.1-1.2,0c-0.1,0-0.1-0.1,0-0.1c0.6-0.4,1.6-0.3,1.7-0.2
			c0.1,0.1,0,1.1-0.6,1.6c-0.1,0.1-0.2,0-0.1-0.1C14.5,14.7,14.7,14,14.6,13.8"/>
		<path id="XMLID_1367_" class="st1" d="M13.4,10.7v-0.4c0-0.1,0-0.1,0.1-0.1l1.8,0c0.1,0,0.1,0,0.1,0.1v0.4c0,0.1-0.1,0.1-0.1,0.3
			l-0.9,1.4c0.4,0,0.7,0,1,0.2c0.1,0,0.1,0.1,0.1,0.2v0.4c0,0.1-0.1,0.1-0.1,0.1c-0.6-0.3-1.3-0.3-1.9,0c-0.1,0-0.1,0-0.1-0.1v-0.4
			c0-0.1,0-0.2,0.1-0.3l1.1-1.6l-1,0C13.5,10.8,13.4,10.7,13.4,10.7"/>
		<path id="XMLID_1366_" class="st1" d="M6.7,13.2H6.2c-0.1,0-0.1,0-0.1-0.1v-2.9c0-0.1,0-0.1,0.1-0.1h0.5c0.1,0,0.1,0,0.1,0.1v0.4
			h0c0.1-0.4,0.4-0.5,0.7-0.5c0.3,0,0.6,0.2,0.7,0.5c0.1-0.4,0.4-0.5,0.8-0.5c0.2,0,0.5,0.1,0.6,0.3c0.2,0.2,0.1,0.6,0.1,0.9l0,1.8
			c0,0.1,0,0.1-0.1,0.1H9.2c-0.1,0-0.1,0-0.1-0.1v-1.5c0-0.1,0-0.4,0-0.5c0-0.2-0.2-0.2-0.3-0.2c-0.1,0-0.3,0.1-0.3,0.2
			c-0.1,0.1-0.1,0.4-0.1,0.5v1.5c0,0.1,0,0.1-0.1,0.1H7.7c-0.1,0-0.1,0-0.1-0.1v-1.5c0-0.3,0.1-0.8-0.3-0.8c-0.4,0-0.4,0.5-0.4,0.8
			v1.5C6.8,13.2,6.8,13.2,6.7,13.2"/>
		<path class="st1" d="M17,10.1c0.8,0,1.3,0.7,1.3,1.6c0,0.9-0.5,1.6-1.3,1.6c-0.8,0-1.3-0.7-1.3-1.6C15.8,10.8,16.2,10.1,17,10.1
			 M17,10.7c-0.4,0-0.4,0.6-0.4,0.9c0,0.3,0,1.1,0.4,1.1c0.4,0,0.5-0.6,0.5-1c0-0.2,0-0.5-0.1-0.8C17.3,10.8,17.2,10.7,17,10.7"/>
		<path id="XMLID_1363_" class="st1" d="M19.4,13.2h-0.6c-0.1,0-0.1,0-0.1-0.1l0-2.9c0-0.1,0.1-0.1,0.1-0.1h0.5c0,0,0.1,0,0.1,0.1
			v0.4h0c0.2-0.4,0.4-0.6,0.8-0.6c0.2,0,0.5,0.1,0.7,0.3c0.1,0.2,0.1,0.6,0.1,0.9v1.8c0,0.1-0.1,0.1-0.1,0.1h-0.6
			c-0.1,0-0.1,0-0.1-0.1v-1.6c0-0.3,0-0.8-0.3-0.8c-0.1,0-0.3,0.1-0.3,0.2c-0.1,0.2-0.1,0.3-0.1,0.5v1.5
			C19.5,13.2,19.4,13.2,19.4,13.2"/>
		<path class="st1" d="M11.9,11.9c0,0.2,0,0.4-0.1,0.6c-0.1,0.2-0.2,0.3-0.4,0.3c-0.2,0-0.3-0.2-0.3-0.4c0-0.5,0.4-0.6,0.8-0.6V11.9
			z M12.5,13.2c0,0-0.1,0-0.1,0c-0.2-0.2-0.2-0.2-0.3-0.4c-0.3,0.3-0.5,0.4-0.9,0.4c-0.5,0-0.8-0.3-0.8-0.9c0-0.5,0.2-0.8,0.6-0.9
			c0.3-0.1,0.7-0.2,1-0.2v-0.1c0-0.1,0-0.3-0.1-0.4c-0.1-0.1-0.2-0.1-0.3-0.1c-0.2,0-0.4,0.1-0.4,0.3c0,0,0,0.1-0.1,0.1l-0.5-0.1
			c0,0-0.1,0-0.1-0.1c0.1-0.7,0.7-0.9,1.2-0.9c0.3,0,0.6,0.1,0.8,0.3c0.3,0.3,0.2,0.6,0.2,1v0.9c0,0.3,0.1,0.4,0.2,0.5
			c0,0.1,0,0.1,0,0.1C12.8,12.9,12.6,13.1,12.5,13.2L12.5,13.2z"/>
		<path class="st1" d="M4.6,11.9c0,0.2,0,0.4-0.1,0.6c-0.1,0.2-0.2,0.3-0.4,0.3c-0.2,0-0.3-0.2-0.3-0.4c0-0.5,0.4-0.6,0.8-0.6V11.9z
			 M5.2,13.2c0,0-0.1,0-0.1,0c-0.2-0.2-0.2-0.2-0.3-0.4c-0.3,0.3-0.5,0.4-0.9,0.4C3.4,13.3,3,13,3,12.4c0-0.5,0.2-0.8,0.6-0.9
			c0.3-0.1,0.7-0.2,1-0.2v-0.1c0-0.1,0-0.3-0.1-0.4c-0.1-0.1-0.2-0.1-0.3-0.1c-0.2,0-0.4,0.1-0.4,0.3c0,0,0,0.1-0.1,0.1l-0.5-0.1
			c0,0-0.1,0-0.1-0.1c0.1-0.7,0.7-0.9,1.2-0.9c0.3,0,0.6,0.1,0.8,0.3c0.3,0.3,0.2,0.6,0.2,1v0.9c0,0.3,0.1,0.4,0.2,0.5
			c0,0.1,0,0.1,0,0.1C5.5,12.9,5.3,13.1,5.2,13.2L5.2,13.2z"/>
	</g>
</g>
</svg>
